<svg xmlns="http://www.w3.org/2000/svg" viewBox="0 0 160 110" width="320" height="220" role="img" aria-label="Sind Anleihen etwas für dich?"><circle cx="104" cy="44" r="14" fill="#DCFBD3" stroke="#1A1A19" stroke-width="2.5" stroke-linecap="round" stroke-linejoin="round"/><path d="M80 98C80 76 90 64 104 64C118 64 128 76 128 98Z" fill="#DCFBD3" stroke="#1A1A19" stroke-width="2.5" stroke-linecap="round" stroke-linejoin="round"/><circle cx="58" cy="48" r="15" fill="#FFFFFF" stroke="#1A1A19" stroke-width="2.5" stroke-linecap="round" stroke-linejoin="round"/><path d="M32 100C32 78 42 68 58 68C74 68 84 78 84 100Z" fill="#FFFFFF" stroke="#1A1A19" stroke-width="2.5" stroke-linecap="round" stroke-linejoin="round"/><path d="M116 8H146A6 6 0 0 1 152 14V28A6 6 0 0 1 146 34H130L122 42V34H116A6 6 0 0 1 110 28V14A6 6 0 0 1 116 8Z" fill="#FFFFFF" stroke="#1A1A19" stroke-width="2.5" stroke-linecap="round" stroke-linejoin="round"/><text x="131" y="28" text-anchor="middle" font-family="Manrope, sans-serif" font-weight="800" font-size="18" fill="#1A1A19">?</text><circle cx="58" cy="86" r="5" fill="#39FF14" stroke="#1A1A19" stroke-width="2.5" stroke-linecap="round" stroke-linejoin="round"/></svg>