<svg xmlns="http://www.w3.org/2000/svg" viewBox="0 0 160 110" width="320" height="220" role="img" aria-label="Anleihen-Beispiele nach Ziel"><circle cx="20" cy="52" r="16" fill="none" stroke="#E4E3DF" stroke-width="3"/><circle cx="20" cy="49" r="4.5" fill="#DCFBD3" stroke="#1A1A19" stroke-width="2"/><path d="M12 62C12 55 16 53 20 53C24 53 28 55 28 62" fill="#DCFBD3" stroke="#1A1A19" stroke-width="2"/><circle cx="20" cy="52" r="16" fill="none" stroke="#157C00" stroke-width="3" stroke-linecap="round" stroke-dasharray="3.35 100.53" transform="rotate(-90 20 52)"/><circle cx="60" cy="52" r="16" fill="none" stroke="#E4E3DF" stroke-width="3"/><circle cx="60" cy="49" r="4.5" fill="#DCFBD3" stroke="#1A1A19" stroke-width="2"/><path d="M52 62C52 55 56 53 60 53C64 53 68 55 68 62" fill="#DCFBD3" stroke="#1A1A19" stroke-width="2"/><circle cx="60" cy="52" r="16" fill="none" stroke="#157C00" stroke-width="3" stroke-linecap="round" stroke-dasharray="33.51 100.53" transform="rotate(-90 60 52)"/><circle cx="100" cy="52" r="16" fill="none" stroke="#E4E3DF" stroke-width="3"/><circle cx="100" cy="49" r="4.5" fill="#DCFBD3" stroke="#1A1A19" stroke-width="2"/><path d="M92 62C92 55 96 53 100 53C104 53 108 55 108 62" fill="#DCFBD3" stroke="#1A1A19" stroke-width="2"/><circle cx="100" cy="52" r="16" fill="none" stroke="#157C00" stroke-width="3" stroke-linecap="round" stroke-dasharray="63.67 100.53" transform="rotate(-90 100 52)"/><circle cx="88.1" cy="62.7" r="4.5" fill="#39FF14" stroke="#1A1A19" stroke-width="2.5" stroke-linecap="round" stroke-linejoin="round"/><circle cx="140" cy="52" r="16" fill="none" stroke="#E4E3DF" stroke-width="3"/><circle cx="140" cy="49" r="4.5" fill="#DCFBD3" stroke="#1A1A19" stroke-width="2"/><path d="M132 62C132 55 136 53 140 53C144 53 148 55 148 62" fill="#DCFBD3" stroke="#1A1A19" stroke-width="2"/><circle cx="140" cy="52" r="16" fill="none" stroke="#157C00" stroke-width="4" stroke-linecap="round" stroke-dasharray="0 8.38" transform="rotate(-90 140 52)"/></svg>