<svg xmlns="http://www.w3.org/2000/svg" viewBox="0 0 160 110" width="320" height="220" role="img" aria-label="Bundeswertpapiere"><path d="M10 92H150" fill="none" stroke="#E4E3DF" stroke-width="2.5" stroke-linecap="round"/><rect x="16" y="60" width="36" height="32" rx="4" fill="#FFFFFF" stroke="#1A1A19" stroke-width="2.5" stroke-linecap="round" stroke-linejoin="round"/><path d="M24 70H44M24 79H38" fill="none" stroke="#1A1A19" stroke-width="2.5" stroke-linecap="round" stroke-linejoin="round"/><rect x="62" y="42" width="36" height="50" rx="4" fill="#DCFBD3" stroke="#1A1A19" stroke-width="2.5" stroke-linecap="round" stroke-linejoin="round"/><path d="M70 53H90M70 62H90M70 71H84" fill="none" stroke="#1A1A19" stroke-width="2.5" stroke-linecap="round" stroke-linejoin="round"/><rect x="108" y="22" width="36" height="70" rx="4" fill="#FFFFFF" stroke="#1A1A19" stroke-width="2.5" stroke-linecap="round" stroke-linejoin="round"/><path d="M108 36V26A4 4 0 0 1 112 22H140A4 4 0 0 1 144 26V36Z" fill="#DCFBD3" stroke="#1A1A19" stroke-width="2.5" stroke-linecap="round" stroke-linejoin="round"/><path d="M116 48H136M116 57H136M116 66H130" fill="none" stroke="#1A1A19" stroke-width="2.5" stroke-linecap="round" stroke-linejoin="round"/><path d="M117 80H133" stroke="#E4E3DF" stroke-width="2.5" stroke-linecap="round"/><circle cx="117" cy="80" r="3" fill="#157C00"/><circle cx="133" cy="80" r="5" fill="#39FF14" stroke="#1A1A19" stroke-width="2.5"/></svg>
