<svg xmlns="http://www.w3.org/2000/svg" viewBox="0 0 160 110" width="320" height="220" role="img" aria-label="Anleihe-Arten"><g transform="rotate(-14 52 62)"><rect x="30" y="32" width="44" height="58" rx="7" fill="#FFFFFF" stroke="#1A1A19" stroke-width="2.5" stroke-linecap="round" stroke-linejoin="round"/><rect x="43" y="44" width="16" height="30" rx="2" fill="#DCFBD3" stroke="#1A1A19" stroke-width="2.5" stroke-linecap="round" stroke-linejoin="round"/><path d="M59 54H64V74M47 51H50M52 51H55M47 58H50M52 58H55M40 74H66" fill="none" stroke="#1A1A19" stroke-width="2.5" stroke-linecap="round" stroke-linejoin="round"/></g><g transform="rotate(14 108 62)"><rect x="86" y="32" width="44" height="58" rx="7" fill="#FFFFFF" stroke="#1A1A19" stroke-width="2.5" stroke-linecap="round" stroke-linejoin="round"/><path d="M96 60L108 50L120 60V76H96Z" fill="#DCFBD3" stroke="#1A1A19" stroke-width="2.5" stroke-linecap="round" stroke-linejoin="round"/><path d="M105 76V67H111V76" fill="none" stroke="#1A1A19" stroke-width="2.5" stroke-linecap="round" stroke-linejoin="round"/></g><rect x="58" y="16" width="44" height="60" rx="7" fill="#FFFFFF" stroke="#1A1A19" stroke-width="2.5" stroke-linecap="round" stroke-linejoin="round"/><path d="M65 36L80 28L95 36Z" fill="#DCFBD3" stroke="#1A1A19" stroke-width="2.5" stroke-linecap="round" stroke-linejoin="round"/><path d="M67 40H93M70 44V58M77 44V58M83 44V58M90 44V58M65 62H95" fill="none" stroke="#1A1A19" stroke-width="2.5" stroke-linecap="round" stroke-linejoin="round"/><circle cx="99" cy="18" r="6" fill="#39FF14" stroke="#1A1A19" stroke-width="2.5" stroke-linecap="round" stroke-linejoin="round"/></svg>