<svg xmlns="http://www.w3.org/2000/svg" viewBox="0 0 160 110" width="320" height="220" role="img" aria-label="Über Bondarium"><ellipse cx="80" cy="55" rx="62" ry="40" fill="none" stroke="#157C00" stroke-width="4.5" stroke-linecap="round" stroke-dasharray="0 14"/><g transform="translate(56 31) scale(0.48)"><rect width="100" height="100" rx="22" fill="#1A1A19"/><path fill="#FBFAF7" d="M20.9 19.75C20.9 15.19 24.59 11.5 29.15 11.5C33.71 11.5 37.4 15.19 37.4 19.75L37.4 41C41.5 36.2 47 33.6 53.5 33.6C68 33.6 79.8 46.5 79.8 61C79.8 77.9 66.3 91.7 49.6 91.7C34.5 91.7 20.9 79.5 20.9 64Z"/><path fill="#1A1A19" d="M62 63C62 69.9 56.4 75.5 49.5 75.5C42.6 75.5 37 69.9 37 63C37 56.1 42.6 50.5 49.5 50.5C56.4 50.5 62 56.1 62 63ZM81.5 48.5C81.5 56.29 75.19 62.6 67.4 62.6C59.61 62.6 53.3 56.29 53.3 48.5C53.3 40.71 59.61 34.4 67.4 34.4C75.19 34.4 81.5 40.71 81.5 48.5Z"/><circle cx="67.4" cy="48.5" r="11.2" fill="#39FF14"/></g></svg>